HIERARCHY
ROOT joint_0
{
	OFFSET 0.000000 0.000000 0.000000
	CHANNELS 6 Xposition Yposition Zposition Zrotation Yrotation Xrotation 
	JOINT joint_1
	{
		OFFSET 7.683380 1.521202 101.454956
		CHANNELS 3 Zrotation Yrotation Xrotation
		JOINT joint_2
		{
			OFFSET -4.816528 0.859650 92.807007
			CHANNELS 3 Zrotation Yrotation Xrotation
			JOINT joint_3
			{
				OFFSET -7.237778 1.114670 92.543091
				CHANNELS 3 Zrotation Yrotation Xrotation
				JOINT joint_4
				{
					OFFSET 0.479660 2.971886 127.844971
					CHANNELS 3 Zrotation Yrotation Xrotation
					JOINT joint_5
					{
						OFFSET 15.211349 9.937172 76.390015
						CHANNELS 3 Zrotation Yrotation Xrotation
						End Site
						{
							OFFSET 0.000000 0.000000 0.000000
						}
					}
				}
				JOINT joint_6
				{
					OFFSET 2.887054 -26.053230 72.331909
					CHANNELS 3 Zrotation Yrotation Xrotation
					JOINT joint_7
					{
						OFFSET 10.229767 -132.540291 -13.979004
						CHANNELS 3 Zrotation Yrotation Xrotation
						JOINT joint_8
						{
							OFFSET 17.695633 -10.988861 -262.204956
							CHANNELS 3 Zrotation Yrotation Xrotation
							JOINT joint_9
							{
								OFFSET 11.003433 -0.031860 -255.909973
								CHANNELS 3 Zrotation Yrotation Xrotation
								End Site
								{
									OFFSET 0.000000 0.000000 0.000000
								}
							}
						}
					}
				}
				JOINT joint_10
				{
					OFFSET -2.092239 29.348854 71.062988
					CHANNELS 3 Zrotation Yrotation Xrotation
					JOINT joint_11
					{
						OFFSET -11.853149 131.935837 -17.877075
						CHANNELS 3 Zrotation Yrotation Xrotation
						JOINT joint_12
						{
							OFFSET 14.084503 10.700203 -262.437012
							CHANNELS 3 Zrotation Yrotation Xrotation
							JOINT joint_13
							{
								OFFSET 48.202347 13.087273 -251.229919
								CHANNELS 3 Zrotation Yrotation Xrotation
								End Site
								{
									OFFSET 0.000000 0.000000 0.000000
								}
							}
						}
					}
				}
			}
		}
	}
	JOINT joint_14
	{
		OFFSET 4.150818 -83.296913 -102.580017
		CHANNELS 3 Zrotation Yrotation Xrotation
		JOINT joint_15
		{
			OFFSET -36.423187 -7.342392 -449.858948
			CHANNELS 3 Zrotation Yrotation Xrotation
			JOINT joint_16
			{
				OFFSET -41.100235 -7.280350 -426.202026
				CHANNELS 3 Zrotation Yrotation Xrotation
				JOINT joint_17
				{
					OFFSET 175.972961 13.159744 -75.358000
					CHANNELS 3 Zrotation Yrotation Xrotation
					End Site
					{
						OFFSET 0.000000 0.000000 0.000000
					}
				}
			}
		}
	}
	JOINT joint_18
	{
		OFFSET -9.062592 83.477568 -102.093018
		CHANNELS 3 Zrotation Yrotation Xrotation
		JOINT joint_19
		{
			OFFSET -39.145699 -6.092751 -449.645996
			CHANNELS 3 Zrotation Yrotation Xrotation
			JOINT joint_20
			{
				OFFSET -32.926178 -7.016375 -426.911980
				CHANNELS 3 Zrotation Yrotation Xrotation
				JOINT joint_21
				{
					OFFSET 176.289299 16.780729 -73.883997
					CHANNELS 3 Zrotation Yrotation Xrotation
					End Site
					{
						OFFSET 0.000000 0.000000 0.000000
					}
				}
			}
		}
	}
}
MOTION
Frames: 12
Frame Time: 0.016667
-538.857117 -264.164276 1084.358032 7.075214 3.008122 2.620713 -0.266182 3.462761 7.046169 -0.324574 -0.463137 -1.292465 -0.063371 0.548526 1.130767 -0.877249 -0.414014 4.194627 0.000000 0.000000 0.000000 5.953533 0.231280 -3.148802 -0.617681 1.210412 0.213197 -0.159885 -9.527212 -0.096416 0.000000 0.000000 0.000000 -2.715424 -0.772347 1.568355 0.728040 -1.012861 -6.328889 1.847768 8.544387 7.057057 0.000000 0.000000 0.000000 0.038973 -29.740106 -13.853224 1.139277 27.775616 -1.033351 3.044090 7.938513 0.681520 0.000000 0.000000 0.000000 -5.389115 -6.428272 9.517749 -3.506503 29.879607 -6.048038 -3.013700 12.775424 -2.455552 0.000000 0.000000 0.000000 
-531.936584 -275.953491 1078.078003 8.969475 1.825448 2.760264 -0.676858 3.763779 6.415796 -0.619157 -0.495154 -1.184301 -0.376974 0.576605 1.072636 -1.067580 0.430962 4.487716 0.000000 0.000000 0.000000 6.103762 0.517906 -3.255116 -0.582325 1.545136 0.607427 -0.156666 -9.120359 -0.137017 0.000000 0.000000 0.000000 -2.588269 -0.752471 2.050374 0.757465 -1.006027 -5.844688 1.853904 8.441994 7.322245 0.000000 0.000000 0.000000 -0.120120 -28.548651 -13.803508 0.803350 28.963506 -1.301236 3.110500 7.399489 0.746132 0.000000 0.000000 0.000000 -6.134465 -6.811408 10.559467 -4.018866 32.874376 -6.690792 -3.133744 12.702926 -2.521402 0.000000 0.000000 0.000000 
-525.390686 -288.079163 1070.249023 11.174018 0.445689 2.942475 -1.174469 4.473576 5.676139 -0.997222 -0.603068 -1.077216 -0.777978 0.661900 1.010839 -1.207271 1.002929 4.743694 0.000000 0.000000 0.000000 6.400445 0.622028 -3.564306 -0.536771 1.732687 1.051383 -0.146378 -8.742586 -0.058296 0.000000 0.000000 0.000000 -2.583116 -0.730156 2.753284 0.769733 -1.001074 -5.370839 1.834226 8.530534 7.339289 0.000000 0.000000 0.000000 -0.989958 -27.313511 -13.664560 -0.434660 31.662165 -1.923673 2.155023 4.270086 0.599541 0.000000 0.000000 0.000000 -7.051898 -7.344141 11.607569 -4.675448 36.289814 -7.405694 -3.189640 12.542401 -2.566948 0.000000 0.000000 0.000000 
-519.531067 -299.783234 1062.651001 13.160353 -0.912551 2.986520 -1.612196 5.402511 5.125187 -1.265833 -0.772760 -0.983283 -1.064939 0.781920 0.960630 -1.311399 1.442810 4.922416 0.000000 0.000000 0.000000 6.713606 0.591583 -3.895170 -0.468929 1.775504 1.355207 -0.127865 -8.201015 -0.118424 0.000000 0.000000 0.000000 -2.588896 -0.800836 3.385876 0.762576 -1.079301 -4.844932 1.782658 8.697347 7.140865 0.000000 0.000000 0.000000 -1.872442 -25.846474 -13.419257 -1.770217 34.017063 -2.310020 0.994306 1.081504 0.389346 0.000000 0.000000 0.000000 -7.782365 -7.862256 12.522274 -5.209350 39.652119 -7.899402 -2.853056 12.411392 -2.485652 0.000000 0.000000 0.000000 
-514.527649 -310.719940 1056.354004 14.501262 -2.039722 2.742555 -1.885399 6.314018 5.063894 -1.251230 -0.959372 -0.970679 -1.044623 0.965251 0.938261 -1.392511 1.853386 5.002855 0.000000 0.000000 0.000000 6.983132 0.429993 -4.125813 -0.363746 1.647207 1.371072 -0.101638 -7.249927 -0.533004 0.000000 0.000000 0.000000 -2.522855 -1.077130 3.717117 0.731314 -1.334334 -4.136282 1.683615 8.960839 6.659131 0.000000 0.000000 0.000000 -2.242440 -23.987499 -12.897887 -2.727132 34.753364 -2.018062 0.122128 -0.875401 0.196282 0.000000 0.000000 0.000000 -7.991941 -8.279498 13.283615 -5.369855 42.778564 -7.956564 -1.813017 12.147042 -2.143900 0.000000 0.000000 0.000000 
-510.254456 -321.194824 1050.672974 15.440908 -3.033695 2.305350 -2.099577 7.299451 5.368900 -1.026912 -1.196488 -1.033534 -0.785184 1.233513 0.940105 -1.445748 2.189541 4.997903 0.000000 0.000000 0.000000 7.265342 0.127388 -4.313637 -0.240383 1.353608 1.126607 -0.077036 -5.935451 -1.163100 0.000000 0.000000 0.000000 -2.416870 -1.529762 3.825586 0.680834 -1.737920 -3.250147 1.542868 9.386669 5.894139 0.000000 0.000000 0.000000 -2.384901 -21.776456 -12.104484 -3.547833 34.513493 -1.287583 -0.737039 -2.490011 -0.024696 0.000000 0.000000 0.000000 -7.829388 -8.634769 13.937374 -5.293891 45.830434 -7.687959 -0.182117 11.653454 -1.562284 0.000000 0.000000 0.000000 
-506.923798 -330.402008 1046.137939 16.042707 -3.824113 1.975814 -2.211423 8.169841 5.715527 -0.700682 -1.408959 -1.097200 -0.414769 1.469727 0.940834 -1.479967 2.420118 4.969808 0.000000 0.000000 0.000000 7.442746 -0.192504 -4.393261 -0.156465 1.010780 0.653742 -0.071181 -4.687117 -1.769407 0.000000 0.000000 0.000000 -2.343140 -1.932513 3.818030 0.631766 -2.094630 -2.567180 1.409616 9.570983 5.178000 0.000000 0.000000 0.000000 -2.465265 -20.128452 -11.454039 -4.119134 34.390260 -0.550197 -1.326670 -3.626109 -0.174601 0.000000 0.000000 0.000000 -7.484270 -9.023043 14.377031 -5.068433 48.413751 -7.415960 1.755376 11.267446 -0.866071 0.000000 0.000000 0.000000 
-504.943970 -337.643951 1043.129028 16.165837 -4.301927 1.980667 -2.043616 8.741622 5.929120 -0.294860 -1.498251 -1.120318 0.007604 1.588165 0.909596 -1.492063 2.505217 4.933123 0.000000 0.000000 0.000000 7.420748 -0.464109 -4.301795 -0.137308 0.672197 -0.050628 -0.086977 -3.819287 -2.302302 0.000000 0.000000 0.000000 -2.371952 -2.132751 3.765942 0.599223 -2.271775 -2.373280 1.317377 9.134337 4.730543 0.000000 0.000000 0.000000 -2.464550 -19.938643 -11.343650 -4.342389 35.458150 -0.050720 -1.423049 -4.164340 -0.165658 0.000000 0.000000 0.000000 -6.967201 -9.571685 14.512884 -4.600643 50.353926 -7.373803 3.973691 11.162537 -0.087199 0.000000 0.000000 0.000000 
-504.236023 -343.235596 1041.423950 15.797656 -4.499583 2.230647 -1.588167 9.089701 6.120734 0.215806 -1.498523 -1.133131 0.509422 1.639253 0.857059 -1.476458 2.457333 4.858307 0.000000 0.000000 0.000000 7.241344 -0.735055 -4.067407 -0.167014 0.294725 -0.995442 -0.121875 -3.167506 -2.870958 0.000000 0.000000 0.000000 -2.477713 -2.205194 3.626362 0.569931 -2.331130 -2.510009 1.241233 8.228824 4.404194 0.000000 0.000000 0.000000 -2.319669 -20.853572 -11.633051 -4.276178 37.328828 0.337481 -1.154597 -4.174866 -0.046465 0.000000 0.000000 0.000000 -6.197734 -10.241749 14.388068 -3.830655 51.835418 -7.463089 6.562666 11.101954 0.829205 0.000000 0.000000 0.000000 
-503.611084 -347.844238 1041.052002 15.470705 -4.572896 2.553633 -1.199249 9.190414 6.252030 0.580083 -1.479140 -1.147717 0.863028 1.648370 0.826156 -1.464925 2.405570 4.809900 0.000000 0.000000 0.000000 7.019581 -0.953568 -3.799873 -0.219362 -0.030288 -1.894348 -0.158532 -2.709118 -3.316412 0.000000 0.000000 0.000000 -2.520138 -2.088884 3.484654 0.530020 -2.227483 -2.826465 1.169072 7.255157 4.121927 0.000000 0.000000 0.000000 -2.205787 -21.653550 -11.922914 -4.188775 38.652476 0.538292 -0.951463 -4.002900 0.030436 0.000000 0.000000 0.000000 -5.483819 -10.875663 14.176922 -3.123603 52.776503 -7.677838 8.759332 11.019017 1.609247 0.000000 0.000000 0.000000 
-502.195862 -351.854736 1042.264038 15.571195 -4.591380 2.837024 -1.149742 8.950274 6.310981 0.606354 -1.478396 -1.198435 0.900247 1.634578 0.854673 -1.486006 2.434557 4.857048 0.000000 0.000000 0.000000 6.809629 -1.088137 -3.550288 -0.266404 -0.250647 -2.545353 -0.179352 -2.478747 -3.539129 0.000000 0.000000 0.000000 -2.399614 -1.696322 3.423587 0.474521 -1.891991 -3.294374 1.101619 6.405961 3.882224 0.000000 0.000000 0.000000 -2.248014 -21.511049 -11.954596 -4.287763 38.463509 0.501157 -1.123174 -3.953824 -0.041134 0.000000 0.000000 0.000000 -5.047761 -11.431910 14.018106 -2.750126 53.097280 -8.108014 9.906150 10.942887 1.992696 0.000000 0.000000 0.000000 
-500.439972 -355.019287 1045.046021 15.911837 -4.501901 3.155284 -1.296840 8.381458 6.287336 0.382943 -1.465733 -1.265890 0.697551 1.585135 0.925340 -1.526012 2.488311 4.971691 0.000000 0.000000 0.000000 6.559343 -1.165893 -3.288698 -0.306361 -0.408585 -3.033425 -0.184827 -2.489485 -3.617240 0.000000 0.000000 0.000000 -2.177020 -1.052691 3.403444 0.403508 -1.342976 -3.965368 1.039317 5.523878 3.723478 0.000000 0.000000 0.000000 -2.392561 -20.876583 -11.882704 -4.468738 37.248967 0.248639 -1.502690 -3.875438 -0.203844 0.000000 0.000000 0.000000 -4.754298 -11.974137 13.831495 -2.549134 52.857288 -8.760803 10.291822 10.949429 2.076138 0.000000 0.000000 0.000000 
